<svg width="12" height="16" viewBox="0 0 12 16" fill="none" xmlns="http://www.w3.org/2000/svg">
<path fill-rule="evenodd" clip-rule="evenodd" d="M0.146926 10.2354C0.0528636 10.1416 -1.39141e-06 10.0142 -1.3856e-06 9.88134L-1.31653e-06 8.30118C-1.29709e-06 7.85637 0.537247 7.63299 0.852612 7.94669L5 12.0721L5 0.499999C5 0.223856 5.22386 -2.96195e-07 5.5 -2.84124e-07L6.5 -2.40411e-07C6.77614 -2.2834e-07 7 0.223856 7 0.499998L7 12.0981L11.1465 7.95204C11.4615 7.63708 12 7.86017 12 8.30561L12 10.3127C12 10.4483 11.9449 10.5781 11.8473 10.6724L6.47796 15.8564C6.28196 16.0456 5.97052 16.0431 5.7776 15.8507L0.146926 10.2354Z" fill="white"/>
</svg>
